<?xml version="1.0" encoding="UTF-8" standalone="no"?><!DOCTYPE svg PUBLIC "-//W3C//DTD SVG 1.1//EN" "http://www.w3.org/Graphics/SVG/1.1/DTD/svg11.dtd"><svg width="100%" height="100%" viewBox="0 0 2221 482" version="1.1" xmlns="http://www.w3.org/2000/svg" xmlns:xlink="http://www.w3.org/1999/xlink" xml:space="preserve" xmlns:serif="http://www.serif.com/" style="fill-rule:evenodd;clip-rule:evenodd;stroke-linejoin:round;stroke-miterlimit:2;"><g id="_5c0db8c7-b9ed-439b-af5d-0d33aba95d53" serif:id="5c0db8c7-b9ed-439b-af5d-0d33aba95d53"></g><rect id="Plan-de-travail1" serif:id="Plan de travail1" x="0" y="-0" width="2220.24" height="481.044" style="fill:none;"/><clipPath id="_clip1"><rect x="0" y="-0" width="2220.24" height="481.044"/></clipPath><g clip-path="url(#_clip1)"><g><g><g><path d="M41.068,390.171c-51.072,-55.209 -50.916,-244.674 -0.038,-299.443c50.874,-54.769 256.093,-55.283 307.168,-0.072c51.072,55.209 50.821,244.654 -0.057,299.423c-50.874,54.768 -255.997,55.303 -307.073,0.092Z" style="fill:#1f69ec;"/></g><g><path d="M200.672,120.516c24.112,0.185 48.135,7.712 67.918,21.523c12.186,7.894 15.909,23.51 4.814,35.477c-1.993,2.018 -3.994,4.03 -5.995,6.042c-4.057,4.071 -9.966,9.966 -9.966,9.966c-8.236,7.427 -19.593,8.172 -29.339,1.788c-24.837,-16.27 -59.481,-7.681 -74.942,20.085c-15.959,28.663 -0.469,64.104 28.326,74.857c15.762,5.887 33.517,3.991 48.258,-5.716c4.016,-2.647 17.388,-7.24 27.625,2.878c4.841,4.789 9.732,9.636 14.175,14.065c5.352,5.338 7.693,9.785 8.2,15.848c1.011,12.084 -5.889,20.002 -21.928,28.26c-42.943,23.584 -96.757,19.789 -137.315,-15.417c-40.832,-34.73 -52.824,-97.506 -26.574,-145.599c21.371,-39.159 60.538,-63.482 103.81,-64.034c0.977,-0.017 1.956,-0.023 2.933,-0.023Z" style="fill:#fff;"/></g><g><path d="M1540.56,276.277c2.028,2.034 3.048,4.863 2.772,7.726c-0.282,2.862 -1.82,5.454 -4.209,7.055c-10.233,6.931 -22.58,10.999 -35.867,10.999c-35.23,0 -63.833,-28.603 -63.833,-63.833c-0,-35.23 28.603,-63.833 63.833,-63.833c13.304,-0 25.656,4.079 35.889,11.056c2.378,1.6 3.911,4.181 4.187,7.032c0.276,2.851 -0.738,5.675 -2.767,7.697c-2.248,2.283 -4.705,4.74 -6.857,6.886c-3.15,3.156 -8.059,3.725 -11.851,1.375c-5.393,-3.386 -11.771,-5.347 -18.601,-5.347c-19.384,-0 -35.129,15.75 -35.129,35.128c0,19.385 15.745,35.123 35.129,35.123c6.818,0 13.191,-1.938 18.579,-5.313c3.792,-2.339 8.689,-1.764 11.833,1.38c2.164,2.153 4.621,4.604 6.892,6.869Zm97.953,-101.886c35.236,-0 63.839,28.603 63.839,63.833c-0,35.23 -28.603,63.833 -63.839,63.833c-35.23,0 -63.833,-28.603 -63.833,-63.833c-0,-35.23 28.603,-63.833 63.833,-63.833Zm-245.404,98.945c7.922,-0 14.352,6.429 14.352,14.352c-0,7.917 -6.43,14.352 -14.352,14.352c-7.923,0 -14.353,-6.435 -14.353,-14.352c0,-7.923 6.43,-14.352 14.353,-14.352Zm427.589,-90.262c9.444,-5.522 20.433,-8.689 32.159,-8.689c34.875,0 63.247,28.029 63.811,62.768l0.022,0l0,55.206c0,5.337 -4.322,9.659 -9.647,9.659l-9.422,-0c-5.325,-0 -9.647,-4.322 -9.647,-9.659l0,-54.169c0,-19.384 -15.733,-35.117 -35.117,-35.117c-6.531,-0 -12.645,1.792 -17.891,4.897l-0,84.389c-0,5.337 -4.317,9.659 -9.647,9.659l-9.416,-0c-5.331,-0 -9.647,-4.322 -9.647,-9.659l-0,-84.485c-5.207,-3.049 -11.259,-4.801 -17.723,-4.801c-19.378,-0 -35.117,15.733 -35.117,35.117l0,0.011l-0.017,0l0,54.158c0,5.337 -4.322,9.659 -9.647,9.659l-9.416,-0c-5.331,-0 -9.653,-4.322 -9.653,-9.659l0,-108.614c0,-2.485 0.986,-4.863 2.745,-6.627c1.752,-1.747 4.136,-2.733 6.621,-2.733l9.991,0c2.479,0 4.863,0.986 6.615,2.733c1.758,1.764 2.744,4.142 2.744,6.627l0,1.183c10.081,-6.666 22.157,-10.543 35.134,-10.543c11.727,0 22.715,3.167 32.165,8.689Zm-182.185,20.016c19.39,-0 35.128,15.75 35.128,35.128c0,19.385 -15.738,35.123 -35.128,35.123c-19.385,0 -35.123,-15.738 -35.123,-35.123c-0,-19.378 15.738,-35.128 35.123,-35.128Z" style="fill:#9d9d9d;"/></g><g><path d="M1229.68,238.952l0,-54.902c0,-2.57 1.02,-5.043 2.841,-6.864c1.825,-1.82 4.293,-2.845 6.869,-2.845l9.303,-0c2.575,-0 5.043,1.025 6.863,2.845c1.821,1.821 2.846,4.294 2.846,6.864l0,108.186c0,5.365 -4.35,9.709 -9.709,9.709l-9.303,0c-5.365,0 -9.71,-4.344 -9.71,-9.709l0,-0.822c-10.075,6.655 -22.145,10.531 -35.117,10.531c-35.219,0 -63.816,-28.586 -63.833,-63.81l-0,-54.085c-0,-2.57 1.02,-5.043 2.846,-6.864c1.814,-1.82 4.288,-2.845 6.863,-2.845l9.303,-0c2.57,-0 5.044,1.025 6.864,2.845c1.82,1.821 2.845,4.294 2.845,6.864l0,54.085l-0.011,-0c0.017,19.373 15.75,35.094 35.123,35.094c19.103,0 34.661,-15.282 35.117,-34.277Zm-599.721,37.196c2.034,2.035 3.048,4.863 2.772,7.726c-0.276,2.863 -1.82,5.455 -4.204,7.055c-10.238,6.931 -22.585,10.999 -35.872,10.999c-35.23,0 -63.833,-28.603 -63.833,-63.833c-0,-35.23 28.603,-63.833 63.833,-63.833c13.304,-0 25.662,4.08 35.889,11.056c2.378,1.6 3.917,4.181 4.193,7.032c0.27,2.852 -0.744,5.675 -2.773,7.698c-2.242,2.282 -4.699,4.739 -6.852,6.886c-3.155,3.155 -8.058,3.724 -11.85,1.375c-5.393,-3.387 -11.772,-5.348 -18.607,-5.348c-19.384,-0 -35.123,15.75 -35.123,35.129c0,19.384 15.739,35.123 35.123,35.123c6.824,-0 13.192,-1.939 18.584,-5.314c3.787,-2.339 8.684,-1.764 11.834,1.38c2.164,2.153 4.62,4.604 6.886,6.869Zm656.308,-92.177c0,-5.353 4.345,-9.709 9.709,-9.709l9.298,-0c5.365,-0 9.709,4.356 9.709,9.709l0,0.823c10.081,-6.65 22.151,-10.532 35.117,-10.532c13.462,-0 25.95,4.175 36.256,11.304c2.378,1.628 3.911,4.226 4.176,7.1c0.27,2.862 -0.756,5.702 -2.801,7.737c-2.192,2.231 -4.593,4.626 -6.7,6.745c-3.223,3.206 -8.222,3.764 -12.048,1.341c-5.454,-3.505 -11.935,-5.528 -18.883,-5.528c-19.097,-0 -34.66,15.276 -35.117,34.266l0,1.719c0.226,9.354 0,34.267 0,34.267l0,19.006c0,5.371 -4.344,9.709 -9.709,9.709l-9.298,0c-5.364,0 -9.709,-4.338 -9.709,-9.709l0,-108.248Zm-183.43,58.784c-0,2.564 -1.026,5.044 -2.846,6.853c-1.82,1.825 -4.288,2.856 -6.863,2.856l-86.137,0c5.483,12.245 17.767,20.749 32.024,20.749c6.807,-0 13.163,-1.939 18.55,-5.297c3.826,-2.35 8.762,-1.77 11.941,1.408c2.124,2.108 4.53,4.508 6.75,6.729c2.057,2.056 3.083,4.919 2.801,7.81c-0.282,2.896 -1.843,5.505 -4.26,7.122c-10.216,6.909 -22.529,10.943 -35.782,10.943c-35.23,0 -63.834,-28.603 -63.834,-63.833c0,-35.23 28.604,-63.833 63.834,-63.833c30.293,-0 55.685,21.148 62.165,49.481c1.042,4.333 1.6,8.841 1.657,13.462l-0,5.55Zm-374.919,-68.493c35.23,-0 63.833,28.603 63.833,63.833c-0,35.23 -28.603,63.833 -63.833,63.833c-35.236,0 -63.839,-28.603 -63.839,-63.833c-0,-35.23 28.603,-63.833 63.839,-63.833Zm219.381,63.844c-0.005,35.23 -28.609,63.822 -63.839,63.822c-35.23,0 -63.833,-28.603 -63.833,-63.833c0,-35.23 28.603,-63.833 63.833,-63.833c12.967,-0 25.042,3.882 35.118,10.532l-0,-36.03c-0,-5.359 4.344,-9.71 9.709,-9.71l9.303,0c5.359,0 9.709,4.351 9.709,9.71l0,89.342Zm-219.381,-35.145c19.384,-0 35.122,15.75 35.122,35.129c0,19.384 -15.738,35.123 -35.122,35.123c-19.39,-0 -35.129,-15.739 -35.129,-35.123c-0,-19.379 15.739,-35.129 35.129,-35.129Zm190.66,34.266c-0.457,-18.99 -16.021,-34.266 -35.118,-34.266c-19.384,-0 -35.123,15.75 -35.123,35.129c0,19.384 15.739,35.123 35.123,35.123c19.385,-0 35.118,-15.728 35.129,-35.107l-0.011,0l-0,-0.879Zm152.472,-13.484c-5.461,-12.245 -17.762,-20.782 -32.035,-20.782c-14.274,-0 -26.569,8.537 -32.03,20.782l64.065,-0Z" style="fill:#6f6f6f;"/></g><g><path d="M1376.33,462.894l-10.43,17.502l-1.95,2.868l17.446,0l26.502,-44.556l1.662,-2.862l-17.502,-0l-7.292,12.983l-7.511,-12.983l-17.869,-0l1.938,2.896l15.006,24.152Zm362.81,-22.45l-49.673,0c1.601,9.078 13.885,10.149 19.227,3.736l29.646,0c-6.142,18.697 -20.833,26.445 -40.059,26.445c-23.239,0 -39.795,-15.226 -39.795,-38.459c0,-24.304 18.162,-37.929 40.86,-37.929c20.297,0.271 40.594,12.82 40.594,37.929c0,2.936 -0.265,5.607 -0.8,8.278Zm-91.338,0l-49.678,0c1.606,9.078 13.89,10.149 19.232,3.736l29.646,0c-6.142,18.697 -20.833,26.445 -40.065,26.445c-23.233,0 -39.789,-15.226 -39.789,-38.459c0,-24.304 18.156,-37.929 40.86,-37.929c20.297,0.271 40.594,12.82 40.594,37.929c0,2.936 -0.264,5.607 -0.8,8.278Zm424.113,28.31l-29.916,0l-0.801,-6.948c-5.071,6.148 -12.284,8.284 -19.497,8.284c-22.697,0.265 -34.182,-17.362 -34.182,-36.588c-0.27,-21.368 13.085,-38.194 35.253,-38.194c5.607,-0 12.82,1.335 17.091,5.077l-0,-25.11l32.052,0l-0,93.479Zm-190.694,0l-30.446,0l-0.8,-6.948c-5.072,6.148 -12.285,8.284 -19.227,8.284c-46.207,0.535 -46.207,-75.582 0,-75.047c6.942,-0 14.42,2.135 19.227,8.278l0.8,-6.943l30.446,0l-0,72.376Zm-543.535,-1.121c2.259,1.341 4.942,2.023 8.052,2.023c2.564,-0 4.953,-0.457 7.173,-1.364c2.221,-0.901 4.148,-2.141 5.788,-3.702c1.656,-1.572 2.941,-3.426 3.865,-5.55c0.919,-2.131 1.386,-4.401 1.386,-6.83c0,-2.378 -0.456,-4.621 -1.352,-6.728c-0.896,-2.108 -2.141,-3.934 -3.719,-5.489c-1.578,-1.544 -3.483,-2.778 -5.72,-3.691c-2.209,-0.901 -4.643,-1.363 -7.297,-1.363c-3.071,-0 -5.798,0.665 -8.176,1.978l-0,-12.2l-15.198,-0l0,44.032l15.198,-0l-0,-1.116Zm446.325,-92.358l-32.316,0l-0,93.744l32.316,0l0,-93.744Zm142.346,21.103l0,7.478c5.077,-6.413 12.555,-8.813 19.497,-8.548c21.633,0.535 29.111,14.955 29.111,34.452l-0,39.259l-32.047,0l0,-39.259c0,-5.071 -3.206,-7.742 -7.477,-7.742c-4.007,-0 -8.013,2.671 -8.013,7.742l-0,38.994l-32.052,0l-0,-72.376l30.981,0Zm-390.19,72.376l-32.052,0l0,-72.376l29.646,0l1.336,6.407c4.541,-8.813 16.561,-9.348 24.839,-6.942l-0.801,28.846c-12.284,-3.742 -22.968,1.865 -22.968,15.755l0,28.31Zm-88.402,-71.311c0,-24.303 21.898,-30.175 45.402,-23.233l-1.071,18.427c-5.607,-2.136 -11.749,-0.265 -11.749,4.806l12.019,0l0,21.633l-12.554,0l-0,49.678l-32.047,0l0,-49.678l-8.013,0l0,-21.633l8.013,0Zm-99.514,54.942c0,0.569 -0.135,1.121 -0.4,1.645c-0.293,0.586 -0.687,1.11 -1.172,1.561c-0.473,0.439 -1.042,0.783 -1.685,1.037c-0.67,0.259 -1.392,0.383 -2.152,0.383c-0.761,-0 -1.482,-0.135 -2.164,-0.406c-0.693,-0.276 -1.302,-0.637 -1.815,-1.087c-0.473,-0.412 -0.845,-0.896 -1.11,-1.454c-0.259,-0.541 -0.383,-1.122 -0.383,-1.736c0,-0.614 0.135,-1.2 0.406,-1.747c0.293,-0.603 0.682,-1.127 1.161,-1.572c0.479,-0.445 1.042,-0.789 1.69,-1.042c0.671,-0.254 1.386,-0.383 2.153,-0.383c0.789,-0 1.515,0.129 2.18,0.4c0.671,0.276 1.263,0.636 1.775,1.098c0.479,0.434 0.857,0.942 1.122,1.522c0.265,0.558 0.394,1.155 0.394,1.781Zm671.585,-20.219c0,7.207 5.004,10.881 10.014,10.983c5.009,0.096 10.013,-3.376 10.013,-10.453c-0,-13.885 -20.027,-13.885 -20.027,-0.53Zm-170.926,0.53c-0,-7.078 -5.01,-10.549 -10.019,-10.515c-5.004,0.034 -10.014,3.573 -10.014,10.515c0,13.89 20.033,13.89 20.033,-0Zm-139.681,-6.407c-0.935,-4.942 -5.409,-7.342 -9.883,-7.314c-4.475,0.033 -8.949,2.507 -9.879,7.314l19.762,-0Zm-91.337,-0c-0.936,-4.942 -5.41,-7.342 -9.884,-7.314c-4.474,0.033 -8.949,2.507 -9.884,7.314l19.768,-0Z" style="fill:#2a4290;fill-rule:nonzero;"/></g><g><path d="M2218.11,294.534c8.729,40.204 -21.689,60.57 -32.798,60.57c2.91,0 16.399,9.258 16.399,23.012c0,5.025 -1.851,6.348 -1.851,8.993c-0,2.645 1.058,5.554 3.703,8.728l-1.587,1.587c-4.761,-4.496 -8.993,-4.232 -12.961,-3.438c-4.496,0.793 -31.475,-3.968 -31.475,-43.907c0.264,-45.494 44.7,-55.545 60.57,-55.545Z" style="fill:url(#_Linear2);fill-rule:nonzero;"/></g><g><path d="M2093.75,294.534c-8.729,40.204 21.689,60.57 32.798,60.57c-2.91,0 -16.399,9.258 -16.399,23.012c-0,5.025 1.851,6.348 1.851,8.993c0,2.645 -1.058,5.554 -3.703,8.728l1.587,1.587c4.761,-4.496 8.993,-4.232 12.961,-3.438c4.496,0.793 31.475,-3.968 31.475,-43.907c-0.264,-45.494 -44.7,-55.545 -60.57,-55.545Z" style="fill:url(#_Linear3);fill-rule:nonzero;"/></g></g></g></g><defs><linearGradient id="_Linear2" x1="0" y1="0" x2="1" y2="0" gradientUnits="userSpaceOnUse" gradientTransform="matrix(61.9459,0,0,61.9459,2157.83,345.926)"><stop offset="0" style="stop-color:#e3a528;stop-opacity:1"/><stop offset="1" style="stop-color:#d06519;stop-opacity:1"/></linearGradient><linearGradient id="_Linear3" x1="0" y1="0" x2="1" y2="0" gradientUnits="userSpaceOnUse" gradientTransform="matrix(61.9459,0,0,61.9459,2092.16,345.926)"><stop offset="0" style="stop-color:#e3a528;stop-opacity:1"/><stop offset="1" style="stop-color:#d06519;stop-opacity:1"/></linearGradient></defs></svg>